<?xml version="1.0" encoding="utf-8"?>
<!-- Generator: Adobe Illustrator 26.1.0, SVG Export Plug-In . SVG Version: 6.00 Build 0)  -->
<svg version="1.1" id="Capa_1" xmlns="http://www.w3.org/2000/svg" xmlns:xlink="http://www.w3.org/1999/xlink" x="0px" y="0px"
	 viewBox="0 0 1600 400" style="enable-background:new 0 0 1600 400;" xml:space="preserve">
<style type="text/css">
	.st0{fill:#FFFFFF;}
	.st1{display:none;fill:#FF9900;}
</style>
<g>
	<path class="st0" d="M1571.83,133.36c-1.2,16.78,4.07,33.28,6.3,49.96c3.09,23.07,0.28,46.89-8.11,68.64
		c-4.34,11.25-10.55,22.4-20.75,28.99c-10.2,6.58-25.17,7.14-33.72-1.44c-5.91-5.93-7.68-14.92-6.84-23.2
		c0.84-8.28,3.95-16.14,6.61-24.03c10.26-30.47,14-63.04,11.02-95.01c-1.28-13.8-2.61-25.52-14.29-34.53
		c-8.77-6.76-21.01-10.46-32.04-8.01c-20.68,4.59-35.15,24.23-39.85,44.64s-1.51,41.69,1.7,62.38c5.33,34.4,10.67,68.8,16,103.21
		c2.26,14.57,4.51,29.48,1.7,43.95c-2.81,14.47-11.71,28.68-25.7,33.84c-18.8,6.94-40.79-5.36-49.67-23.13
		c-8.88-17.77-7.18-39.03-1.65-58.08s14.61-36.95,20.25-55.97c8.05-27.14,8.88-56.33,2.37-83.87c-3.59-15.22-9.72-30.42-21.13-41.25
		s-29.01-16.32-43.61-10.3c-22.45,9.25-27.22,38.49-25.31,62.44c1.71,21.47,6.1,42.73,13.04,63.14
		c5.35,15.71,12.28,31.32,12.74,47.89c0.46,16.57-7.62,34.85-23.51,40.22c-17.84,6.03-37.61-7.15-45.36-24.12
		c-7.74-16.97-6.59-36.43-5.28-55c1.65-23.43,3.29-46.86,4.94-70.29c1.29-18.41,2.56-37.14-1.67-55.11
		c-4.23-17.97-14.87-35.4-31.7-43.42c-16.83-8.02-40.86-9.56-50.34,6.34c-25.39,3.16-35.79,35.35-30.99,60.17
		c4.79,24.82,18.71,47.89,19.04,73.16c0.33,25.27-23.63,53.51-47.18,43.63c-15.28-6.41-21.07-25.51-18.93-41.77
		s10.1-31.15,14.59-46.94c7.48-26.28,4.65-56-10.8-78.64s-44.28-36.7-71.46-31.75c-27.19,4.95-49.89,30.65-48.08,57.9
		c1,15.07,8.64,28.92,11.6,43.74c2.96,14.82-0.96,33.32-15.16,38.95c-15.99,6.34-33.61-8.82-37.46-25.41
		c-3.84-16.59,1.24-33.72,3.6-50.57s0.96-36.34-12.16-47.37c-20.52-17.26-54.95,0.95-62.64,26.46
		c-7.69,25.51,2.46,52.62,12.93,77.15c10.47,24.53,21.66,50.9,15.99,76.92c-5.67,26.02-36.98,47.78-59.95,33.84
		c-15.72-9.54-19.95-30.81-16.54-48.72c3.4-17.91,12.64-34.19,18.03-51.62c7.85-25.38,6.62-54.99-9.81-76
		c-16.42-21.01-50.33-28.97-71.29-12.36c-17.18,13.63-20.96,38.45-16.93,59.84s14.34,41.1,20.61,61.96
		c6.27,20.86,8.01,44.89-4.08,63.09c-12.08,18.2-41.91,25.12-56.43,8.74c-16.14-18.2-3.27-45.85,5.93-68.27
		c12.58-30.66,16.74-65.91,4.72-96.79c-12.02-30.88-42.51-55.72-76.01-55.26c-33.49,0.47-65.29,31.18-61.04,63.99
		c2.39,18.49,14.54,34.22,20.37,51.94c5.83,17.72,1.71,42.08-16.4,47.35c-18.12,5.27-35.41-13.96-36.72-32.58
		c-1.31-18.61,7.49-36.23,13.2-54.01c5.71-17.78,7.66-39.29-4.92-53.21c-15.69-17.37-47.16-11.79-61.61,6.6
		c-14.57,18.54-14.61,43.93-9.25,65.77c3.22,13.11,7.73,26.01,11.67,38.93c3.37,11.06,11.61,26.61,11.61,38.08
		c4.29,14.06,8.62,28.44,8.1,43.12c-0.61,17.07-8.43,34.21-22.36,44.34c-13.93,10.14-34.01,12.2-48.83,3.39
		c-17.02-10.13-23.86-31.4-24.3-51.01c-0.45-20.24,4.4-40.19,9.5-59.8c5.1-19.61,10.5-39.35,11.21-59.58
		c0.71-20.23-3.73-41.35-16.49-57.19S398,87.32,378.4,93.24c-19.59,5.92-32.21,24.71-39.96,43.44
		c-6.61,15.97-10.88,32.87-12.7,50.02c-1.58,14.82,0.83,25.7,3.42,39.73c6.34,34.33,8.23,70.12,12.31,104.79
		c2.84,24.11,2.6,54.36-19.24,65.49c-14.75,7.52-34.01,1.44-44.72-11.08s-13.99-29.89-12.83-46.24
		c1.65-23.33,11.34-45.28,21.17-66.55s20.08-42.86,23-66.06c2.92-23.21-2.76-48.79-20.46-64.33s-48.74-16.44-63.38,1.94
		c-17.77,22.3-3.79,54.41,8.61,80.01c11.88,24.54,22.09,52.03,15.62,78.47c-6.47,26.44-36.47,48.54-61.66,37.54
		c-16.08-7.02-24.96-25.01-25.96-42.34s4.46-34.33,10-50.81c8.63-25.66,17.7-51.64,18.9-78.65c1.2-27.01-6.65-55.77-27.08-73.77
		c-20.42-18.01-54.9-21.27-74.65-2.54C70,110.1,69.99,139.71,75.32,164.88c5.33,25.17,14.7,50.62,10.03,75.91
		s-31.3,49.01-55.34,39.14c-21.7-8.91-26.29-38.1-19.93-60.44c6.36-22.34,20.14-42.48,23.53-65.45C37,131.08,23.5,102.58,0,102.45
		V400h1600V95.68C1583.23,98.64,1573.03,116.57,1571.83,133.36z"/>
	<path class="st1" d="M0,0v102.45c23.5,0.13,37,28.63,33.61,51.59c-3.39,22.96-17.17,43.11-23.53,65.45
		c-6.36,22.34-1.77,51.54,19.93,60.44c24.04,9.87,50.67-13.85,55.34-39.14s-4.7-50.74-10.03-75.91
		C69.99,139.71,70,110.1,88.78,92.29c19.74-18.73,54.22-15.47,74.65,2.54c20.42,18.01,28.27,46.76,27.08,73.77
		c-1.2,27.01-10.27,52.99-18.9,78.65c-5.54,16.48-11,33.48-10,50.81s9.88,35.32,25.96,42.34c25.19,11,55.19-11.1,61.66-37.54
		c6.47-26.44-3.73-53.93-15.62-78.47c-12.4-25.6-26.37-57.7-8.61-80.01c14.64-18.38,45.68-17.47,63.38-1.94s23.37,41.12,20.46,64.33
		c-2.92,23.21-13.17,44.79-23,66.06s-19.52,43.22-21.17,66.55c-1.16,16.35,2.12,33.72,12.83,46.24s29.97,18.6,44.72,11.08
		c21.84-11.14,22.08-41.38,19.24-65.49c-4.08-34.67-5.96-70.46-12.31-104.79c-2.59-14.03-4.99-24.9-3.42-39.73
		c1.82-17.15,6.1-34.05,12.7-50.02c7.75-18.73,20.36-37.52,39.96-43.44c19.6-5.92,41.76,3.38,54.52,19.23s17.2,36.96,16.49,57.19
		c-0.71,20.23-6.12,39.97-11.21,59.58c-5.1,19.61-9.94,39.56-9.5,59.8c0.43,19.62,7.28,40.89,24.3,51.01
		c14.82,8.82,34.9,6.75,48.83-3.39c13.93-10.14,21.75-27.27,22.36-44.34c0.52-14.68-3.81-29.05-8.1-43.12
		c0-11.46-8.24-27.02-11.61-38.08c-3.94-12.92-8.45-25.82-11.67-38.93c-5.36-21.84-5.31-47.23,9.25-65.77
		c14.45-18.39,45.92-23.97,61.61-6.6c12.58,13.92,10.62,35.43,4.92,53.21c-5.71,17.78-14.5,35.4-13.2,54.01
		c1.31,18.61,18.6,37.85,36.72,32.58c18.1-5.27,22.23-29.63,16.4-47.35c-5.83-17.72-17.98-33.46-20.37-51.94
		c-4.25-32.81,27.55-63.52,61.04-63.99c33.49-0.47,63.98,24.38,76.01,55.26c12.02,30.87,7.86,66.13-4.72,96.79
		c-9.2,22.42-22.06,50.07-5.93,68.27c14.52,16.37,44.35,9.46,56.43-8.74c12.08-18.2,10.35-42.22,4.08-63.09
		c-6.27-20.86-16.58-40.57-20.61-61.96s-0.25-46.22,16.93-59.84c20.95-16.62,54.86-8.65,71.29,12.36
		c16.42,21.01,17.65,50.61,9.81,76c-5.39,17.43-14.62,33.7-18.03,51.62c-3.4,17.91,0.82,39.17,16.54,48.72
		c22.96,13.94,54.27-7.82,59.95-33.84c5.67-26.02-5.52-52.39-15.99-76.92c-10.47-24.53-20.62-51.63-12.93-77.15
		c7.69-25.51,42.12-43.72,62.64-26.46c13.12,11.03,14.52,30.52,12.16,47.37s-7.45,33.99-3.6,50.57
		c3.84,16.59,21.47,31.75,37.46,25.41c14.2-5.63,18.12-24.13,15.16-38.95c-2.96-14.82-10.6-28.67-11.6-43.74
		c-1.81-27.24,20.89-52.94,48.08-57.9c27.19-4.95,56.01,9.1,71.46,31.75s18.28,52.36,10.8,78.64
		c-4.49,15.78-12.45,30.68-14.59,46.94s3.65,35.36,18.93,41.77c23.55,9.88,47.5-18.36,47.18-43.63
		c-0.33-25.27-14.24-48.34-19.04-73.16c-4.79-24.82,5.61-57.01,30.99-60.17c9.47-15.9,33.5-14.36,50.34-6.34
		c16.83,8.02,27.47,25.44,31.7,43.42c4.23,17.97,2.96,36.71,1.67,55.11c-1.65,23.43-3.29,46.86-4.94,70.29
		c-1.3,18.57-2.46,38.03,5.28,55c7.74,16.97,27.52,30.16,45.36,24.12c15.88-5.37,23.97-23.65,23.51-40.22
		c-0.46-16.57-7.4-32.18-12.74-47.89c-6.95-20.41-11.34-41.67-13.04-63.14c-1.9-23.94,2.87-53.19,25.31-62.44
		c14.6-6.02,32.2-0.52,43.61,10.3s17.53,26.03,21.13,41.25c6.5,27.54,5.68,56.73-2.37,83.87c-5.64,19.02-14.72,36.92-20.25,55.97
		s-7.23,40.3,1.65,58.08c8.88,17.77,30.87,30.07,49.67,23.13c13.98-5.16,22.89-19.36,25.7-33.84c2.81-14.47,0.55-29.39-1.7-43.95
		c-5.33-34.4-10.67-68.8-16-103.21c-3.21-20.69-6.4-41.97-1.7-62.38s19.17-40.04,39.85-44.64c11.03-2.45,23.26,1.25,32.04,8.01
		c11.69,9.01,13.01,20.73,14.29,34.53c2.97,31.97-0.77,64.54-11.02,95.01c-2.66,7.9-5.77,15.75-6.61,24.03
		c-0.84,8.28,0.93,17.27,6.84,23.2c8.55,8.58,23.51,8.02,33.72,1.44c10.2-6.58,16.42-17.74,20.75-28.99
		c8.39-21.75,11.2-45.57,8.11-68.64c-2.24-16.68-7.51-33.18-6.3-49.96c1.2-16.78,11.4-34.72,28.17-37.68V0H0z"/>
</g>
</svg>
