<?xml version="1.0" encoding="utf-8"?>
<!-- Generator: Adobe Illustrator 26.1.0, SVG Export Plug-In . SVG Version: 6.00 Build 0)  -->
<svg version="1.1" id="Capa_1" xmlns="http://www.w3.org/2000/svg" xmlns:xlink="http://www.w3.org/1999/xlink" x="0px" y="0px"
	 viewBox="0 0 3200 243" style="enable-background:new 0 0 3200 243;" xml:space="preserve">
<style type="text/css">
	.st0{fill:#22A30C;}
	.st1{fill:#1B5E20;}
</style>
<path class="st0" d="M3199.7,83.8c-7.3,2.3-14.5,5-21.1,9.2c-4.4,2.8-7.2,2.2-10.6-1.8c-4-4.7-7.7-10.3-15.4-12.7
	c3.3,6.8,1.2,13.4,4.2,19.1c0,0,0,0,0,0v0c0,0,0,0,0,0c0,0,0,0,0,0c2.4,15.6-12.9,18.1-20.2,26.8c-0.1-2.1-0.3-4.2-0.4-6.2
	c4.2-22.8,5.2-46.3,12.7-68.5c0,0,0,0,0,0c3.3-5.3,4.6-11.3,6.5-17.1c1.3-4,2.6-8,4.2-12.9c-2,0.9-3,1.2-3.8,1.8
	c-25.2,20.9-44.1,46.5-58,76.1c-5.5,7.8-7.9,17.2-12.4,25.5c-1.6,2.3-3.6,4.2-4.8,6.8c-1.2,2.7-3.2,3.8-5.6,1.3
	c2.7-1.6,5.2-3.4,6.8-6.3c-5.1,1.2-10.3,2.4-15.4,3.6c0,0,0,0,0,0c0,0,0,0,0,0c-7.2-10-14.9-19.6-23.9-27.9
	c-3.8-3.5-5.9-7.1-4.9-12.3c5.1-17.8,10.9-35.5,18.3-53.6c-5.2,1.7-7.3,4.7-9.1,7.9c-6.3,11.5-12.9,22.9-17.5,35.2
	c-1,2.7-1.6,5.7-4.4,7.3c-3.1-2.2-6.1-4.4-9.2-6.6c0,0,0,0,0,0c0,0,0,0,0,0c-3.9-3-7.6-6.5-13.2-5.4c3.7,2.4,7.5,4.9,11.2,7.3
	c2.6,2.2,5.2,4.4,7.8,6.6c2.3,2.5,3,5.1,1.7,8.4c-1.5,3.8-2.4,7.9-3.6,11.9c0,0,0,0,0,0c-7,2.8-14.5,1.1-21.7,1.9
	c-5.9,0.6-8.8-3.7-12.3-7.2c-15.6-15.6-32.9-28.2-56.2-29.2v0c-3.5-0.4-7.1-1.1-11.3,2.1c9.8,3.8,18.1,8,25.9,13.4
	c14.6,10.1,24.2,24.6,34.6,38.5c-4.9,5-8.8,11.4-17.2,10.9c-4.6-8.1-9-16.4-19.5-22.2c5.1,11,9.2,19.8,13.2,28.6
	c0.5,6.5-6,8.9-8.3,13.8v0c-6-3.5-7.7-10.4-12.2-15.1c-4.4-4.5-7.7-10.2-15.2-13.1c2.6,5.5,1,10.5,3.6,14.7
	c0.3,3.6,0.8,7.3,0.9,10.9c0.3,14.3,2.5,28.7-2.4,42.7c-5.9-2.2-8.5-8.3-13.4-11.7c-4.6-3.2-10.3-6.2-2.8-13.3
	c-2.4,0.1-3.5-0.1-4.4,0.3c-1.7,0.7-3.2,1.7-4.8,2.5c-7.1,0.4-12.7-5.8-22.4-4.8c5.5,2.9,9.1,4.8,12.8,6.7c0,0,0,0,0,0v0
	c0,0,0,0,0,0c-5.2,8.6-13.7,13.8-20.6,20.7v0c-2.2-3.4-2.9-7.2-3.1-11.3c-0.8-15.8-0.3-31.5,1.6-47.2c0,0,0,0,0,0
	c0.8-3.5,1.7-7,2.9-12c-3.5,3.2-5.9,5.4-8.2,7.5c-7.5,6.9-12,16.1-18.7,23.5c-3.1-2.9-6.2-5.8-9.3-8.6c0.9-12.2,9.2-21.7,13.7-35
	c-10.7,6.9-15.6,15.6-20.3,24.5c-3.9-0.1-5.9-4-9.5-4.8c-2.4-3.3-6.4-5.9-4.7-10.9c8.8-9.9,14.5-22.3,25.2-30.7c0,0,0,0,0,0
	c0,0,0,0,0,0c10.1-5.9,19.1-13.7,30.6-17.2c2.7-0.8,2.4-2.5-0.5-3.1v0c-30.6-1.9-51.9,14.2-70.2,36.2c-1.8,2-3.8,1.2-5.7,0.2
	c-5.2-2-10.7-1.6-16.1-1.5c-3.3,0.1-6.2,0-8-3.3c0,0,0,0,0,0c-0.4-3.9-1.5-7.5-3.4-10.9c-0.3-3.6,2.7-5.9,4-8.7
	c-2.6-1.6-3.9,0.2-5.5,0.9c-4.8-4.2-5.5-10.5-8-15.9c-4.4-16.2-20.3-39.3-27.7-40.3c3.9,7.1,7.8,14.3,11.7,21.5c0,0,0,0,0,0
	c4.3,13.1,8.6,26.3,12.8,39.4c0,0,0,0,0,0c-0.2,2.9,0.1,5.7-2.5,7.9c-10.6,9.2-18.6,20.8-27.8,31.2c0,0,0,0,0,0
	c-4.5-1.6-8.9-3.5-13.7-3.9c0.6,2.5,2.2,3.7,4.1,4.8c-1.1,1.3-2.3,2.8-3.4,0.1c-0.9-2.3-2.7-3.5-4.2-5.1c-2.2-4.2-4.3-8.4-6.5-12.7
	c-1-2.7-1.9-5.4-3.1-8c-6.5-14.1-14.8-27.1-24-39.5c0,0,0,0,0,0c-8.8-14.8-19.9-27.6-33.5-38.2c0,0,0,0,0,0
	c-3.3-1.6-5.1-5.8-10.3-5.2c4.7,3,4.7,8,6.3,12.2c0.1,0.5,0.3,0.9,0.6,1.3c3,9.4,6,18.7,8.9,28.1c0.1,0.7,0.2,1.4,0.7,2.1
	c3.7,20,7.7,39.9,10,60.1c-0.7,1.6-1.7,1.8-3,0.5c-6.4-6.2-12.8-12.4-19.2-18.6c0,0,0,0,0,0c0.5-3.9,1-7.8,1.4-11.8
	c2.3-5,1.2-10.3,0.7-16.4c-4.6,3.4-8.5,7.3-11.5,11.8c-3.7,5.5-7.9,5.9-13.2,2.9c-3.7-2.4-5.3-4.7-0.2-7.6c6.1-3.5,12-7.3,18.7-9.6
	c1.7-0.6,1.7-0.8,0.5-3.4c-12.7-1.4-24.5,1-35.5,7.6c0,0,0,0,0,0c-8.8,4.4-17,9.8-24.1,16.6c-2,1.9-3.7,4.5-7.1,4.3
	c-5.8-8.3-11.8-16.5-19-23.8c-1.3-0.7-0.6-2.5-1.8-3.2c-15.8-16.2-32.9-30.9-50.1-45.6c-3.1-2.7-6.1-5-10.2-5.3c0,0,0,0,0,0
	c-3.8-3.4-8.2-5.9-12.9-7.8c-4.5-2.6-9-5.1-13.4,1.6c5,0.2,9.1,0.4,13.3,0.7c3.8,2.4,7.5,4.9,11.3,7.3c7.9,5.6,14.5,12.4,18.7,21.2
	c2.5,10.2,8.6,19.1,10,29.6c1.7,2.5,0,5.4,1,8.1c-0.6-0.3-1.5-0.5-2.7-0.4c-0.3,0.7-0.7,1.4-1,2.1c-7.3,14.7-9.2,32.4-22.9,43.8
	c0,0,0,0,0,0c-4.6-1.3-9.1-2.6-13.7-3.9c1,3.5,3.8,5.1,6.6,6.5c-2.2,2.2-4.4,1.9-5.9-1.6c-1-2.2-2.7-3.6-4.3-5.2
	c-5.3-9.3-7.9-19.9-14.2-28.7c0,0,0,0,0,0c-13.7-28.8-32.8-53.5-57.3-74c-1.4-1.2-3.1-3-5.6-0.4c5.2,2.8,4.2,8.6,6.6,12.9
	c0,0,0,0.1,0,0.1c4.3,14.8,8.6,29.7,12.8,44.5c0,0,0,0,0,0c2.2,15.3,4.4,30.6,6.7,45.8c0.2,0.4,0.4,0.7,0.4,1.1
	c-0.1-0.4-0.3-0.8-0.4-1.1c-3,3.3-4-0.7-5.3-1.8c-5.8-5.2-11.3-10.6-16.9-16c0,0,0,0,0,0c0.5-4.1,1-8.1,1.4-12.2
	c2.8-4.8,1-10.1,3.1-16.8c-6.8,4.2-11.1,8.5-14.7,13.2c-3.4,4.5-6.2,5-11.1,2.2c-8.9-5.1-18.3-9.6-31.3-10.6
	c10.8,5.9,19.6,10.5,27.6,16.5c4.1,3,4.5,5.6,1.8,9.8c-5.6,8.6-10.6,17.7-13.8,27.5c-1.6,4.9-4.5,6.1-9,3.6c0,0,0,0,0,0
	c-8.1-14.8-15.9-29.7-27.5-42.2c-0.3-0.7-0.4-1.6-0.8-2.2c-18.7-25.5-41.1-47.3-66.8-65.8c-1.7-1.2-3.6-3.1-6.5-0.5
	c13.8,10.6,25.2,23.4,37.4,35.4v0c6.3,8.5,12.6,16.9,18.9,25.4c-9.1,16.5-15.2,34-17.3,52.9c-0.3,3,0.9,8.5-3.7,8.2
	c-5.3-0.3-4.2-5.5-3.8-9.4c0.1-0.8,0.1-1.6,0.2-2.4v0c1.2-3.6,0.9-7.6,3.1-11.2c-3.7,2.2-7.1,4.5-9.8,7.6c-4.1,4.7-6.9,3.6-9.5-1.3
	c0.2-9.2,0.8-18.4,2.3-27.6c1.1-6.7,4.5-13,4-20.1c-3.7,2-4.3,5.9-5.4,9.2c-3.6,10.4-6.7,20.8-15.5,28.6c-3.4,3-6.2,7.1-8.2,11.5
	c-1-0.7-2-1.4-3-2.1c-9.6-5.9-10.1-7.2-2.9-16.3c13.2-16.7,27.6-32,47.5-40.9c2-0.9,4.2-1.8,1.4-4.2c-1.4,0-2.9,0-4.3,0.1v0
	c-7.7-1-15.2,0.2-22.6,2.5c-17.2,5.3-30.8,16-42.7,29c-2.6,2.8-5.1,5.3-9.3,5c1,0.3,2.1,0.6,3.1,0.9c-1,0.1-2.1-0.1-3.1-0.9
	c-4.6-1.6-9.4-1.9-14-1.3c-6.3,0.8-10.1-1.1-11.1-7.7c-0.3-1.8-1.3-3.4-2-5.1c0,0,0,0,0,0c0.1-2,0.2-4,0.4-6v0
	c7.2-5.1,13.1-11.7,20.4-16.6c-9.4,1.6-15.1,9.8-23.8,12.6c0,0,0,0,0,0c-0.5-1.1-1-2.1-1.6-3.2c0,0,0,0,0,0c-4-8.3-7.2-17-12.1-24.7
	c-4.8-7.5-7-17.2-16.3-21.6c9.4,18.6,15.4,38.1,20.3,58c-3.7,7.6-11.9,11.5-15.9,18.9c-3.7,4.3-7.8,8.4-11,13.1
	c-2.9,4.3-5.8,4.5-9.7,1.8c-2.9-1.8-6.3-2.3-8.4,0.3c-2.4,2.9-1.5-1.5-2.5-0.7c-3.3-6.9-6.7-13.7-10-20.6v0
	c-4.2-12.3-11.2-22.9-18.8-33.3c-8.7-16.8-21.2-30.5-35.1-43.1c0,0,0,0,0,0c-3.6-3.9-6.9-8.3-13-8.6c2.4,3.4,4.2,6.7,4.8,10.6
	c5.8,16.2,10.2,32.8,14.5,49.4c0,0,0,0,0,0c2.1,15.2,4.3,30.3,6.4,45.5c-9-5.8-17-12.5-22.3-22h0c0.7-4.1,1.3-8.2,2-12.3
	c0,0,0,0,0,0c0.2-0.5,0.3-1,0.4-1.4c1-4.1,0.9-8.4,3.4-12.7c-4.7,1.1-6.7,4.1-9.1,6.4c-13.4,12.7-13.4,12.7-30,2.7
	c-1-0.9-2-1.7-3.3-2.1c-1.2-0.1-2.3-0.2-3.3,0.1c-3.6-1.3-7.3-1.9-11-2.6l-0.5,1.9c2.8,1.3,5.7,2.5,8.5,3.8c-0.7,3,1.2,4.8,3.7,6.5
	c2.9,1.9,5.8,3.7,8.4,5.9c2.7,2.2,4.5,5.2,2.6,8.3c-6.3,10.2-8.2,23.1-18.4,30.9c-0.1-0.1-0.2-0.2-0.3-0.4c0,0,0,0,0,0
	c-0.7-1.5-1.4-3.1-2.1-4.6c1.7-14-1.4-26.9-8.9-38.8c-1.4-2.3-2.6-4.5-2.3-7.3c0,0,0,0,0,0c0,0,0,0,0,0c3.7-5.3,7.3-10.6,11-15.9
	c0.3-2.7,0.9-5.4-0.9-8.5c-3.1,2.7-5.8,5-8.5,7.3c-1.2,1.9-2.4,3.8-3.5,5.7l0,0l0,0v0c-2.2,2.3-4.3,4.6-6.6,6.7
	c-2.9,2.7-3.7,8-9.1,7.8c-4.9-7.8-11.1-14.5-18-20.5c-1.2-1-2.1-3.4-4.4-2c-1.6,1-1.3,2.7-1.5,4.2c-0.5,3.2,0.7,5.6,3.1,7.5
	c0,0,0,0,0,0c-10.6,3.8-21.8,6.2-31.4,12.4c-4.8,3.1-8.2,2.8-11.9-2c-3.7-4.7-7.5-9.8-14.9-12.1c3.4,6.7,1.2,13.4,4.1,19.2
	c0,0,0,0,0.1,0c2.3,15.5-13,18-20.2,26.7c-0.1-2.1-0.3-4.2-0.4-6.2c4.2-22.8,5.2-46.3,12.7-68.5c0,0,0,0,0,0
	c3.3-5.3,4.6-11.3,6.5-17.1c1.3-4,2.6-8,4.2-12.9c-2,0.9-3,1.2-3.8,1.8c-25.2,20.9-44.1,46.5-58,76.1c0,0,0,0,0,0
	c-5.5,7.8-7.9,17.2-12.4,25.5c-1.6,2.3-3.6,4.2-4.8,6.8c-1.2,2.7-3.2,3.8-5.6,1.3c2.7-1.6,5.2-3.4,6.8-6.3
	c-5.1,1.2-10.3,2.4-15.4,3.6c0,0,0,0,0,0c0,0,0,0,0,0c-7.2-10-14.9-19.6-23.9-27.9c-3.8-3.5-5.9-7.1-4.9-12.3c0,0,0,0,0,0
	c5.1-17.8,10.9-35.5,18.3-53.6c-5.2,1.7-7.3,4.7-9.1,7.9c-6.3,11.5-12.9,22.9-17.5,35.2c-1,2.7-1.6,5.7-4.4,7.3
	c-3.1-2.2-6.1-4.4-9.2-6.6c0,0,0,0,0,0c-3.9-3-7.6-6.5-13.2-5.4c3.7,2.4,7.5,4.9,11.2,7.3c2.6,2.2,5.2,4.4,7.8,6.6
	c2.3,2.5,3,5.1,1.7,8.4c-1.5,3.8-2.4,7.9-3.6,11.9c0,0,0,0,0,0c-7,2.8-14.5,1.1-21.7,1.9c-5.9,0.6-8.8-3.7-12.3-7.2
	c-15.6-15.6-32.9-28.2-56.2-29.2c-3.5-0.4-7.1-1.1-11.3,2.1c9.8,3.8,18.1,8.1,25.9,13.5c14.6,10.1,24.1,24.8,34.7,38.5v0
	c-0.4,1.1-0.8,2.1-1.3,3.2v0c0,0,0,0,0,0c-2.4,1.5-4.8,3.1-7.2,4.6c-2.7,1.7-4.7,5.4-8.8,3.1c-4.6-8.1-9-16.4-19.5-22.2
	c5.1,11,9.2,19.8,13.2,28.6c0.5,6.5-6,8.9-8.3,13.8c0,0,0,0,0,0c-6-3.5-7.7-10.4-12.2-15.1c-4.4-4.5-7.7-10.2-15.2-13.1
	c2.6,5.5,1,10.5,3.6,14.7c0.3,3.6,0.8,7.3,0.9,10.9c0.3,14.3,2.5,28.7-2.4,42.7c-5.9-2.2-8.5-8.3-13.4-11.7
	c-4.6-3.2-10.3-6.2-3.3-12.8c-4-0.9-6.4,0.6-8.7,2.3c-7.1,0.4-12.7-5.8-22.4-4.8c5.5,2.9,9.1,4.8,12.8,6.7c0,0,0,0,0,0l0,0v0
	c0,0,0,0,0,0c-5.2,8.6-13.8,13.8-20.6,20.7c-2.2-3.4-2.9-7.2-3.1-11.3c-0.8-15.8-0.3-31.5,1.6-47.2c0.8-3.5,1.7-7,2.9-12
	c-3.5,3.2-5.9,5.4-8.2,7.5c-7.5,6.9-12,16.1-18.7,23.5c-3.1-2.9-6.2-5.8-9.3-8.6c0.9-12.2,9.2-21.7,13.7-35
	c-10.7,6.8-15.5,15.6-20.3,24.4c-3.8-0.1-5.8-3.7-9.1-4.7l0-17.3c6.3-8.5,11.6-17.8,20.2-24.4c10-5.8,18.9-13.7,30.3-17
	c1.2-0.3,2.7-1.3,1.2-2.8c-0.6-0.6-2-0.4-3-0.5c-19.5-0.7-35.2,5.8-48.8,16.4l0-4.5c-7.3,2.3-14.5,5-21.1,9.2
	c-4.3,2.8-7.2,2.2-10.6-1.8l-0.1-3.5l0.1,3.5c-4-4.7-7.7-10.3-15.4-12.7c3.3,6.8,1.2,13.4,4.2,19.1c0,0,0,0,0,0l0,0c0,0,0,0,0,0
	c0,0,0,0,0,0c2.4,15.6-12.9,18.1-20.2,26.8c-0.1-2.1-0.3-4.2-0.4-6.2c4.2-22.8,5.2-46.3,12.7-68.5c0,0,0,0,0,0
	c3.3-5.3,4.6-11.3,6.5-17.1c1.3-4,2.6-8,4.2-12.9c-2,0.9-3,1.2-3.8,1.8c-25.2,20.9-44.1,46.5-58,76.1c-5.5,7.8-7.9,17.2-12.4,25.5
	c-1.6,2.3-3.6,4.2-4.8,6.8c-1.2,2.7-3.2,3.8-5.6,1.3c2.7-1.6,5.2-3.4,6.8-6.3c-5.1,1.2-10.3,2.4-15.4,3.6c0,0,0,0,0,0c0,0,0,0,0,0
	c-7.2-10-14.9-19.6-23.9-27.9c-3.8-3.5-5.9-7.1-4.9-12.3c5.1-17.8,10.9-35.5,18.3-53.6c-5.2,1.7-7.3,4.7-9.1,7.9
	c-6.3,11.5-12.9,22.9-17.5,35.2c-1,2.7-1.6,5.7-4.4,7.3c-3.1-2.2-6.1-4.4-9.2-6.6c0,0,0,0,0,0c0,0,0,0,0,0c-3.9-3-7.6-6.5-13.2-5.4
	c3.7,2.4,7.5,4.9,11.2,7.3c2.6,2.2,5.2,4.4,7.8,6.6c2.3,2.5,3,5.1,1.7,8.4c-1.5,3.8-2.4,7.9-3.6,11.9c0,0,0,0,0,0
	c-7,2.8-14.5,1.1-21.7,1.9c-5.9,0.6-8.8-3.7-12.3-7.2c-15.6-15.6-32.9-28.2-56.2-29.2v0c-3.5-0.4-7.1-1.1-11.3,2.1
	c9.8,3.8,18.1,8,25.9,13.4c14.6,10.1,24.2,24.6,34.6,38.5c-4.9,5-8.8,11.4-17.2,10.9c-4.6-8.1-9-16.4-19.5-22.2
	c5.1,11,9.2,19.8,13.2,28.6c0.5,6.5-6,8.9-8.3,13.8v0c-6-3.5-7.7-10.4-12.2-15.1c-4.4-4.5-7.7-10.2-15.2-13.1
	c2.6,5.5,1,10.5,3.6,14.7c0.3,3.6,0.8,7.3,0.9,10.9c0.3,14.3,2.5,28.7-2.4,42.7c-5.9-2.2-8.5-8.3-13.4-11.7
	c-4.6-3.2-10.3-6.2-2.8-13.3c-2.4,0.1-3.5-0.1-4.4,0.3c-1.7,0.7-3.2,1.7-4.8,2.5c-7.1,0.4-12.7-5.8-22.4-4.8
	c5.5,2.9,9.1,4.8,12.8,6.7c0,0,0,0,0,0l0,0c0,0,0,0,0,0c-5.2,8.6-13.7,13.8-20.6,20.7v0c-2.2-3.4-2.9-7.2-3.1-11.3
	c-0.8-15.8-0.3-31.5,1.6-47.2c0,0,0,0,0,0c0.8-3.5,1.7-7,2.9-12c-3.5,3.2-5.9,5.4-8.2,7.5c-7.5,6.9-12,16.1-18.7,23.5
	c-3.1-2.9-6.2-5.8-9.3-8.6c0.9-12.2,9.2-21.7,13.7-35c-10.7,6.9-15.6,15.6-20.3,24.5c-3.9-0.1-5.9-4-9.5-4.8
	c-2.4-3.3-6.4-5.9-4.7-10.9c8.8-9.9,14.5-22.3,25.2-30.7c0,0,0,0,0,0c0,0,0,0,0,0c10.1-5.9,19.1-13.7,30.6-17.2
	c2.7-0.8,2.4-2.5-0.5-3.1c0,0,0,0,0,0c-30.6-1.9-51.9,14.2-70.2,36.2c-1.8,2-3.8,1.2-5.7,0.2c-5.2-2-10.7-1.6-16.1-1.5
	c-3.3,0.1-6.2,0-8-3.3c0,0,0,0,0,0c-0.4-3.9-1.5-7.5-3.4-10.9c-0.3-3.6,2.7-5.9,4-8.7c-2.6-1.6-3.9,0.2-5.5,0.9
	c-4.8-4.2-5.5-10.5-8-15.9c-4.4-16.2-20.3-39.3-27.7-40.3c3.9,7.1,7.8,14.3,11.7,21.5c0,0,0,0,0,0c4.3,13.1,8.6,26.3,12.8,39.4
	c0,0,0,0,0,0c-0.2,2.9,0.1,5.7-2.5,7.9c-10.6,9.2-18.6,20.8-27.8,31.2c0,0,0,0,0,0c-4.5-1.6-8.9-3.5-13.7-3.9
	c0.6,2.5,2.2,3.7,4.1,4.8c-1.1,1.3-2.3,2.8-3.4,0.1c-0.9-2.3-2.7-3.5-4.2-5.1c-2.2-4.2-4.3-8.4-6.5-12.7c-1-2.7-1.9-5.4-3.1-8
	c-6.5-14.1-14.8-27.1-24-39.5c0,0,0,0,0,0c-8.8-14.8-19.9-27.6-33.5-38.2c0,0,0,0,0,0c-3.3-1.6-5.1-5.8-10.3-5.2
	c4.7,3,4.7,8,6.3,12.2c0.1,0.5,0.3,0.9,0.6,1.3c3,9.4,6,18.7,8.9,28.1c0.1,0.7,0.2,1.4,0.7,2.1c3.7,20,7.7,39.9,10,60.1
	c-0.7,1.6-1.7,1.8-3,0.5c-6.4-6.2-12.8-12.4-19.2-18.6c0,0,0,0,0,0c0.5-3.9,1-7.8,1.4-11.8c2.3-5,1.2-10.3,0.7-16.4
	c-4.6,3.4-8.5,7.3-11.5,11.8c-3.7,5.5-7.9,5.9-13.2,2.9c-3.7-2.4-5.3-4.7-0.2-7.6c6.1-3.5,12-7.3,18.7-9.6c1.7-0.6,1.7-0.8,0.5-3.4
	c-12.7-1.4-24.5,1-35.5,7.6c0,0,0,0,0,0c-8.8,4.4-17,9.8-24.1,16.6c-2,1.9-3.7,4.5-7.1,4.3c-5.8-8.3-11.8-16.5-19-23.8
	c-1.3-0.7-0.6-2.5-1.8-3.2c-15.8-16.2-32.9-30.9-50.1-45.6c-3.1-2.7-6.1-5-10.2-5.3c0,0,0,0,0,0c-3.8-3.4-8.2-5.9-12.9-7.8
	c-4.5-2.6-9-5.1-13.4,1.6c5,0.2,9.1,0.4,13.3,0.7c3.8,2.4,7.5,4.9,11.3,7.3c7.9,5.6,14.5,12.4,18.7,21.2c2.5,10.2,8.6,19.1,10,29.6
	c1.7,2.5,0,5.4,1,8.1c-0.6-0.3-1.5-0.5-2.7-0.4c-0.3,0.7-0.7,1.4-1,2.1c-7.3,14.7-9.2,32.4-22.9,43.8c0,0,0,0,0,0
	c-4.6-1.3-9.1-2.6-13.7-3.9c1,3.5,3.8,5.1,6.6,6.5c-2.2,2.2-4.4,1.9-5.9-1.6c-1-2.2-2.7-3.6-4.3-5.2c-5.3-9.3-7.9-19.9-14.2-28.7
	c0,0,0,0,0,0c-13.7-28.8-32.8-53.5-57.3-74c-1.4-1.2-3.1-3-5.6-0.4c5.2,2.8,4.2,8.6,6.6,12.9c0,0,0,0.1,0,0.1
	c4.3,14.8,8.6,29.7,12.8,44.5c0,0,0,0,0,0c2.2,15.3,4.4,30.6,6.7,45.8c0.2,0.4,0.4,0.7,0.4,1.1c-0.1-0.4-0.3-0.8-0.4-1.1
	c-3,3.3-4-0.7-5.3-1.8c-5.8-5.2-11.3-10.6-16.9-16c0,0,0,0,0,0c0.5-4.1,1-8.1,1.4-12.2c2.8-4.8,1-10.1,3.1-16.8
	c-6.8,4.2-11.1,8.5-14.7,13.2c-3.4,4.5-6.2,5-11.1,2.2c-8.9-5.1-18.3-9.6-31.3-10.6c10.8,5.9,19.6,10.5,27.6,16.5
	c4.1,3,4.5,5.6,1.8,9.8c-5.6,8.6-10.6,17.7-13.8,27.5c-1.6,4.9-4.5,6.1-9,3.6c0,0,0,0,0,0c-8.1-14.8-15.9-29.7-27.5-42.2
	c-0.3-0.7-0.4-1.6-0.8-2.2c-18.7-25.5-41.1-47.3-66.8-65.8c-1.7-1.2-3.6-3.1-6.5-0.5c13.8,10.6,25.2,23.4,37.4,35.4v0
	c6.3,8.5,12.6,16.9,18.9,25.4c-9.1,16.5-15.2,34-17.3,52.9c-0.3,3,0.9,8.5-3.7,8.2c-5.3-0.3-4.2-5.5-3.8-9.4
	c0.1-0.8,0.1-1.6,0.2-2.4v0c1.2-3.6,0.9-7.6,3.1-11.2c-3.7,2.2-7.1,4.5-9.8,7.6c-4.1,4.7-6.9,3.6-9.5-1.3c0.2-9.2,0.8-18.4,2.3-27.6
	c1.1-6.7,4.5-13,4-20.1c-3.7,2-4.3,5.9-5.4,9.2c-3.6,10.4-6.7,20.8-15.5,28.6c-3.4,3-6.2,7.1-8.2,11.5c-1-0.7-2-1.4-3-2.1
	c-9.6-5.9-10.1-7.2-2.9-16.3c13.2-16.7,27.6-32,47.5-40.9c2-0.9,4.2-1.8,1.4-4.2c-1.4,0-2.9,0-4.3,0.1v0c-7.7-1-15.2,0.2-22.6,2.5
	c-17.2,5.3-30.8,16-42.7,29c-2.6,2.8-5.1,5.3-9.3,5c1,0.3,2.1,0.6,3.1,0.9c-1,0.1-2.1-0.1-3.1-0.9c-4.6-1.6-9.4-1.9-14-1.3
	c-6.3,0.8-10.1-1.1-11.1-7.7c-0.3-1.8-1.3-3.4-2-5.1v0c0.1-2,0.2-4,0.4-6v0c7.2-5.1,13.1-11.7,20.4-16.6
	c-9.4,1.6-15.1,9.8-23.8,12.6c0,0,0,0,0,0c-0.5-1.1-1-2.1-1.6-3.2c0,0,0,0,0,0c-4-8.3-7.2-17-12.1-24.7c-4.8-7.5-7-17.2-16.3-21.6
	c9.4,18.6,15.4,38.1,20.3,58c-3.7,7.6-11.9,11.5-15.9,18.9c-3.7,4.3-7.8,8.4-11,13.1c-2.9,4.3-5.8,4.5-9.7,1.8
	c-2.9-1.8-6.3-2.3-8.4,0.3c-2.4,2.9-1.5-1.5-2.5-0.7c-3.3-6.9-6.7-13.7-10-20.6v0c-4.2-12.3-11.2-22.9-18.8-33.3
	c-8.7-16.8-21.2-30.5-35.1-43.1c0,0,0,0,0,0c-3.6-3.9-6.9-8.3-13-8.6c2.4,3.4,4.2,6.7,4.8,10.6c5.8,16.2,10.2,32.8,14.5,49.4
	c0,0,0,0,0,0c2.1,15.2,4.3,30.3,6.4,45.5c-9-5.8-17-12.5-22.3-22c0.7-4.1,1.3-8.2,2-12.3c0,0,0,0,0,0c0.2-0.5,0.3-1,0.4-1.4
	c1-4.1,0.9-8.4,3.4-12.7c-4.7,1.1-6.7,4.1-9.1,6.4c-13.4,12.7-13.4,12.7-30,2.7c-1-0.9-2-1.7-3.3-2.1c-1.2-0.1-2.3-0.2-3.3,0.1
	c-3.6-1.3-7.3-1.9-11-2.6c-0.2,0.6-0.4,1.3-0.5,1.9c2.8,1.3,5.7,2.5,8.5,3.8c-0.7,3,1.2,4.8,3.7,6.5c2.9,1.9,5.8,3.7,8.4,5.9
	c2.7,2.2,4.5,5.2,2.6,8.3c-6.3,10.2-8.2,23.1-18.4,30.9c-0.1-0.1-0.2-0.2-0.3-0.4c0,0,0,0,0,0c-0.7-1.5-1.4-3.1-2.1-4.6
	c1.7-14-1.4-26.9-8.9-38.8c-1.4-2.3-2.6-4.5-2.3-7.3v0c3.7-5.3,7.3-10.6,11-15.9c0.3-2.7,0.9-5.4-0.9-8.5c-3.1,2.7-5.8,5-8.5,7.3
	c-1.2,1.9-2.4,3.8-3.5,5.7l0,0l0,0v0c-2.2,2.3-4.3,4.6-6.6,6.7c-2.9,2.7-3.7,8-9.1,7.8c-4.9-7.8-11.1-14.5-18-20.5
	c-1.2-1-2.1-3.4-4.4-2c-1.6,1-1.3,2.7-1.5,4.2c-0.5,3.2,0.7,5.6,3.1,7.5c0,0,0,0,0,0c-10.6,3.8-21.8,6.2-31.4,12.4
	c-4.8,3.1-8.2,2.8-11.9-2c-3.7-4.7-7.5-9.8-14.9-12.1c3.4,6.7,1.2,13.4,4.1,19.2c0,0,0,0,0.1,0c2.3,15.5-13,18-20.2,26.7
	c-0.1-2.1-0.3-4.2-0.4-6.2c4.2-22.8,5.2-46.3,12.7-68.5c0,0,0,0,0,0c3.3-5.3,4.6-11.3,6.5-17.1c1.3-4,2.6-8,4.2-12.9
	c-2,0.9-3,1.2-3.8,1.8c-25.2,20.9-44.1,46.5-58,76.1c0,0,0,0,0,0c-5.5,7.8-7.9,17.2-12.4,25.5c-1.6,2.3-3.6,4.2-4.8,6.8
	c-1.2,2.7-3.2,3.8-5.6,1.3c2.7-1.6,5.2-3.4,6.8-6.3c-5.1,1.2-10.3,2.4-15.4,3.6l0,0c0,0,0,0,0,0c-7.2-10-14.9-19.6-23.9-27.9
	c-3.8-3.5-5.9-7.1-4.9-12.3v0c5.1-17.8,10.9-35.5,18.3-53.6c-5.2,1.7-7.3,4.7-9.1,7.9c-6.3,11.5-12.9,22.9-17.5,35.2
	c-1,2.7-1.6,5.7-4.4,7.3c-3.1-2.2-6.1-4.4-9.2-6.6c0,0,0,0,0,0c-3.9-3-7.6-6.5-13.2-5.4c3.7,2.4,7.5,4.9,11.2,7.3
	c2.6,2.2,5.2,4.4,7.8,6.6c2.3,2.5,3,5.1,1.7,8.4C92.1,106,91.2,110,90,114c0,0,0,0,0,0c-7,2.8-14.5,1.1-21.7,1.9
	c-5.9,0.6-8.8-3.7-12.3-7.2C40.4,93,23.2,80.4-0.2,79.5c-3.5-0.4-7.1-1.1-11.3,2.1c9.8,3.8,18.1,8.1,25.9,13.5
	c14.6,10.1,24.1,24.8,34.7,38.5v0c-0.4,1.1-0.8,2.1-1.3,3.2v0c-2.4,1.5-4.8,3.1-7.2,4.6c-2.7,1.7-4.7,5.4-8.8,3.1
	c-4.6-8.1-9-16.4-19.5-22.2c5.1,11,9.2,19.8,13.2,28.6c0.5,6.5-6,8.9-8.3,13.8c0,0,0,0,0,0c-6-3.5-7.7-10.4-12.2-15.1
	c-4.4-4.5-7.7-10.2-15.2-13.1c2.6,5.5,1,10.5,3.6,14.7c0.3,3.6,0.8,7.3,0.9,10.9c0.3,14.3,2.5,28.7-2.4,42.7c-0.5-0.2-1-0.4-1.5-0.7
	c0.2,4.2,0.4,8.4,0.6,12.6h3208.9L3199.7,83.8z"/>
<path class="st1" d="M3199.7,110.2c-7.3,2.3-14.5,5-21.1,9.2c-4.4,2.8-7.2,2.2-10.6-1.8c-4-4.7-7.7-10.3-15.4-12.7
	c3.3,6.8,1.2,13.4,4.2,19.1c2.4,15.6-12.9,18.1-20.2,26.8c-0.1-2.1-0.3-4.2-0.4-6.2c4.2-22.8,5.2-46.3,12.7-68.5
	c3.3-5.3,4.6-11.3,6.5-17.1c1.3-4,2.6-8,4.2-12.9c-2,0.9-3,1.2-3.8,1.8c-25.2,20.9-44.1,46.5-58,76.1c-5.5,7.8-7.9,17.2-12.4,25.5
	c-1.6,2.3-3.6,4.2-4.8,6.8c-1.2,2.7-3.2,3.8-5.6,1.3c2.7-1.6,5.2-3.4,6.8-6.3c-5.1,1.2-10.3,2.4-15.4,3.6
	c-7.2-10-14.9-19.6-23.9-27.9c-3.8-3.5-5.9-7.1-4.9-12.3c5.1-17.8,10.9-35.5,18.3-53.6c-5.2,1.7-7.3,4.7-9.1,7.9
	c-6.3,11.5-12.9,22.9-17.5,35.2c-1,2.7-1.6,5.7-4.4,7.3c-3.1-2.2-6.1-4.4-9.2-6.6c-3.9-3-7.6-6.5-13.2-5.4c3.7,2.4,7.5,4.9,11.2,7.3
	c2.6,2.2,5.2,4.4,7.8,6.6c2.3,2.5,3,5.1,1.7,8.4c-1.5,3.8-2.4,7.9-3.6,11.9c-7,2.8-14.5,1.1-21.7,1.9c-5.9,0.6-8.8-3.7-12.3-7.2
	c-15.6-15.6-32.9-28.2-56.2-29.2c-3.5-0.4-7.1-1.1-11.3,2.1c9.8,3.8,18.1,8,25.9,13.4c14.6,10.1,24.2,24.6,34.6,38.5
	c-4.9,5-8.8,11.4-17.2,10.9c-4.6-8.1-9-16.4-19.5-22.2c5.1,11,9.2,19.8,13.2,28.6c0.5,6.5-6,8.9-8.3,13.8c-6-3.5-7.7-10.4-12.2-15.1
	c-4.4-4.5-7.7-10.2-15.2-13.1c2.6,5.5,1,10.5,3.6,14.7c0.3,3.6,0.8,7.3,0.9,10.9c0.2,8.9-8.2,12.8-10.4,21.5
	c-4.2,17-19.9,7.2-8.2-3.8c-2.4,0.1-3.5-0.1-4.4,0.3c-1.7,0.7-3.2,1.7-4.8,2.5c-7.1,0.4-12.7-5.8-22.4-4.8c5.5,2.9,9.1,4.8,12.8,6.7
	c0,0,0,0,0,0c-1.8,2.9-5.6,9.4-8.9,10.9c-3,1.4-10.2-2.2-6.7-5.7c-2.7,2.7-6.9,4-8.2,0.6c-1.5-3.7-0.2-10.6-0.2-14.6
	c0.1-5.2,0.3-10.3,0.7-15.5c0.1-1.7,0.1-12.9,1.3-13.5c0.8-3.5,1.7-7,2.9-12c-3.5,3.2-5.9,5.4-8.2,7.5c-7.5,6.9-12,16.1-18.7,23.5
	c-3.1-2.9-6.2-5.8-9.3-8.6c0.9-12.2,9.2-21.7,13.7-35c-10.7,6.9-15.6,15.6-20.3,24.5c-3.9-0.1-5.9-4-9.5-4.8
	c-2.4-3.3-6.4-5.9-4.7-10.9c8.8-9.9,14.5-22.3,25.2-30.7c10.1-5.9,19.1-13.7,30.6-17.2c2.7-0.8,2.4-2.5-0.5-3.1
	c-30.6-1.9-51.9,14.2-70.2,36.2c-1.8,2-3.8,1.2-5.7,0.2c-5.2-2-10.7-1.6-16.1-1.5c-3.3,0.1-6.2,0-8-3.3c-0.4-3.9-1.5-7.5-3.4-10.9
	c-0.3-3.6,2.7-5.9,4-8.7c-2.6-1.6-3.9,0.2-5.5,0.9c-4.8-4.2-5.5-10.5-8-15.9c-4.4-16.2-20.3-39.3-27.7-40.3
	c3.9,7.1,7.8,14.3,11.7,21.5c4.3,13.1,8.6,26.3,12.8,39.4c-0.2,2.9,0.1,5.7-2.5,7.9c-10.6,9.2-18.6,20.8-27.8,31.3
	c-4.5-1.6-8.9-3.5-13.7-3.9c0.6,2.5,2.2,3.7,4.1,4.8c-1.1,1.3-2.3,2.8-3.4,0.1c-0.9-2.3-2.7-3.5-4.2-5.1c-2.2-4.2-4.3-8.4-6.5-12.7
	c-1-2.7-1.9-5.4-3.1-8c-6.5-14.1-14.8-27.1-24-39.5c-8.8-14.8-19.9-27.6-33.5-38.2c-3.3-1.6-5.1-5.8-10.3-5.2c4.7,3,4.7,8,6.3,12.2
	c0.1,0.5,0.3,0.9,0.6,1.3c3,9.4,6,18.7,8.9,28.1c0.1,0.7,0.2,1.4,0.7,2.1c3.7,20,7.7,39.9,10,60.1c-0.7,1.6-1.7,1.8-3,0.5
	c-6.4-6.2-12.8-12.4-19.2-18.6c0.5-3.9,1-7.8,1.4-11.8c2.3-5,1.2-10.3,0.7-16.4c-4.6,3.4-8.5,7.3-11.5,11.8
	c-3.7,5.5-7.9,5.9-13.2,2.9c-3.7-2.4-5.3-4.7-0.2-7.6c6.1-3.5,12-7.3,18.7-9.6c1.7-0.6,1.7-0.8,0.5-3.4c-12.7-1.4-24.5,1-35.5,7.6
	c-8.8,4.4-17,9.8-24.1,16.6c-2,1.9-3.7,4.5-7.1,4.3c-5.8-8.3-11.8-16.5-19-23.8c-1.3-0.7-0.6-2.5-1.8-3.2
	c-15.8-16.2-32.9-30.9-50.1-45.6c-3.1-2.7-6.1-5-10.2-5.3c-3.8-3.4-8.2-5.9-12.9-7.8c-4.5-2.6-9-5.1-13.4,1.6
	c5,0.2,9.1,0.4,13.3,0.7c3.8,2.4,7.5,4.9,11.3,7.3c7.9,5.6,14.5,12.4,18.7,21.2c2.5,10.2,8.6,19.1,10,29.6c1.7,2.5,0,5.4,1,8.1
	c-0.6-0.3-1.5-0.5-2.7-0.4c-0.3,0.7-0.7,1.4-1,2.1c-7.3,14.7-9.2,32.4-22.9,43.8c-4.6-1.3-9.1-2.6-13.7-3.9c1,3.5,3.8,5.1,6.6,6.5
	c-2.2,2.2-4.4,1.9-5.9-1.6c-1-2.2-2.7-3.6-4.3-5.2c-5.3-9.3-7.9-19.9-14.2-28.7c-13.7-28.8-32.8-53.5-57.3-74
	c-1.4-1.2-3.1-3-5.6-0.4c5.2,2.8,4.2,8.6,6.6,12.9c0,0,0,0.1,0,0.1c4.3,14.8,8.6,29.7,12.8,44.5c2.2,15.3,4.4,30.6,6.7,45.8
	c0.2,0.4,0.4,0.7,0.4,1.1c-0.1-0.4-0.3-0.8-0.4-1.1c-3,3.3-4-0.7-5.3-1.8c-5.8-5.2-11.3-10.6-16.9-16c0.5-4.1,1-8.1,1.4-12.2
	c2.8-4.8,1-10.1,3.1-16.8c-6.8,4.2-11.1,8.5-14.7,13.2c-3.4,4.5-6.2,5-11.1,2.2c-8.9-5.1-18.3-9.6-31.3-10.6
	c10.8,5.9,19.6,10.5,27.6,16.5c4.1,3,4.5,5.6,1.8,9.8c-5.6,8.6-10.6,17.7-13.8,27.5c-1.6,4.9-4.5,6.1-9,3.6
	c-8.1-14.8-15.9-29.7-27.5-42.2c-0.3-0.7-0.4-1.6-0.8-2.2c-18.7-25.5-41.1-47.3-66.8-65.8c-1.7-1.2-3.6-3.1-6.5-0.5
	c13.8,10.6,25.2,23.4,37.4,35.4c6.3,8.5,12.6,16.9,18.9,25.4c-9.1,16.5-15.2,34-17.3,52.9c-0.3,3,0.9,8.5-3.7,8.2
	c-5.3-0.3-4.2-5.5-3.8-9.4c0.1-0.8,0.1-1.6,0.2-2.4c1.2-3.6,0.9-7.6,3.1-11.2c-3.7,2.2-7.1,4.5-9.8,7.6c-4.1,4.7-6.9,3.6-9.5-1.3
	c0.2-9.2,0.8-18.4,2.3-27.6c1.1-6.7,4.5-13,4-20.1c-3.7,2-4.3,5.9-5.4,9.2c-3.6,10.4-6.7,20.8-15.5,28.6c-3.4,3-6.2,7.1-8.2,11.5
	c-1-0.7-2-1.4-3-2.1c-9.6-5.9-10.1-7.2-2.9-16.3c13.2-16.7,27.6-32,47.5-40.9c2-0.9,4.2-1.8,1.4-4.2l-4.3,0.1
	c-7.7-1-15.2,0.2-22.6,2.5c-17.2,5.3-30.8,16-42.7,29c-2.6,2.8-5.1,5.3-9.3,5c1,0.3,2.1,0.6,3.1,0.9c-1,0.1-2.1-0.1-3.1-0.9
	c-4.6-1.6-9.4-1.9-14-1.3c-6.3,0.8-10.1-1.1-11.1-7.7c-0.3-1.8-1.3-3.4-2-5.1l0.4-6c7.2-5.1,13.1-11.7,20.4-16.6
	c-9.4,1.6-15.1,9.8-23.8,12.6c-0.5-1.1-1-2.1-1.6-3.2c-4-8.3-7.2-17-12.1-24.7c-4.8-7.5-7-17.2-16.3-21.6
	c9.4,18.6,15.4,38.1,20.3,58c-3.7,7.6-11.9,11.5-15.9,18.9c-3.7,4.3-7.8,8.4-11,13.1c-2.9,4.3-5.8,4.5-9.7,1.8
	c-2.9-1.8-6.3-2.3-8.4,0.3c-2.4,2.9-1.5-1.5-2.5-0.7c-3.3-6.9-6.7-13.7-10-20.6c-4.2-12.3-11.2-22.9-18.8-33.3
	c-8.7-16.8-21.2-30.5-35.1-43.1c-3.6-3.9-6.9-8.3-13-8.6c2.4,3.4,4.2,6.7,4.8,10.6c5.8,16.2,10.2,32.8,14.5,49.4
	c2.1,15.2,4.3,30.3,6.4,45.5c-9-5.8-17-12.5-22.3-22c0.7-4.1,1.3-8.2,2-12.3c0.2-0.5,0.3-1,0.4-1.4c1-4.1,0.9-8.4,3.4-12.7
	c-4.7,1.1-6.7,4.1-9.1,6.4c-13.4,12.7-13.4,12.7-30,2.7c-1-0.9-2-1.7-3.3-2.1c-1.2-0.1-2.3-0.2-3.3,0.1c-3.6-1.3-7.3-1.9-11-2.6
	l-0.5,1.9c2.8,1.3,5.7,2.5,8.5,3.8c-0.7,3,1.2,4.8,3.7,6.5c2.9,1.9,5.8,3.7,8.4,5.9c2.7,2.2,4.5,5.2,2.6,8.3
	c-6.3,10.2-8.2,23.1-18.4,30.9c-0.1-0.1-0.2-0.2-0.3-0.4c-0.7-1.5-1.4-3.1-2.1-4.6c1.7-14-1.4-26.9-8.9-38.8
	c-1.4-2.3-2.6-4.5-2.3-7.3c3.7-5.3,7.3-10.6,11-15.9c0.3-2.7,0.9-5.4-0.9-8.5c-3.1,2.7-5.8,5-8.5,7.3c-1.2,1.9-2.4,3.8-3.5,5.7
	c-2.2,2.3-4.3,4.6-6.6,6.7c-2.9,2.7-3.7,8-9.1,7.8c-4.9-7.8-11.1-14.5-18-20.5c-1.2-1-2.1-3.4-4.4-2c-1.6,1-1.3,2.7-1.5,4.2
	c-0.5,3.2,0.7,5.6,3.1,7.5c-10.6,3.8-21.8,6.2-31.4,12.4c-4.8,3.1-8.2,2.8-11.9-2c-3.7-4.7-7.5-9.8-14.9-12.1
	c3.4,6.7,1.2,13.4,4.1,19.2c0,0,0,0,0.1,0c2.3,15.5-13,18-20.2,26.7c-0.1-2.1-0.3-4.2-0.4-6.2c4.2-22.8,5.2-46.3,12.7-68.5
	c3.3-5.3,4.6-11.3,6.5-17.1c1.3-4,2.6-8,4.2-12.9c-2,0.9-3,1.2-3.8,1.8c-25.2,20.9-44.1,46.5-58,76.1c-5.5,7.8-7.9,17.2-12.4,25.5
	c-1.6,2.3-3.6,4.2-4.8,6.8c-1.2,2.7-3.2,3.8-5.6,1.3c2.7-1.6,5.2-3.4,6.8-6.3c-5.1,1.2-10.3,2.4-15.4,3.6
	c-7.2-10-14.9-19.6-23.9-27.9c-3.8-3.5-5.9-7.1-4.9-12.3c5.1-17.8,10.9-35.5,18.3-53.6c-5.2,1.7-7.3,4.7-9.1,7.9
	c-6.3,11.5-12.9,22.9-17.5,35.2c-1,2.7-1.6,5.7-4.4,7.3c-3.1-2.2-6.1-4.4-9.2-6.6c-3.9-3-7.6-6.5-13.2-5.4c3.7,2.4,7.5,4.9,11.2,7.3
	c2.6,2.2,5.2,4.4,7.8,6.6c2.3,2.5,3,5.1,1.7,8.4c-1.5,3.8-2.4,7.9-3.6,11.9c-7,2.8-14.5,1.1-21.7,1.9c-5.9,0.6-8.8-3.7-12.3-7.2
	c-15.6-15.6-32.9-28.2-56.2-29.2c-3.5-0.4-7.1-1.1-11.3,2.1c9.8,3.8,18.1,8.1,25.9,13.5c14.6,10.1,24.1,24.8,34.7,38.5l-1.3,3.2
	c-2.4,1.5-4.8,3.1-7.2,4.6c-2.7,1.7-4.7,5.4-8.8,3.1c-4.6-8.1-9-16.4-19.5-22.2c5.1,11,9.2,19.8,13.2,28.6c0.5,6.5-6,8.9-8.3,13.8
	c-6-3.5-7.7-10.4-12.2-15.1c-4.4-4.5-7.7-10.2-15.2-13.1c2.6,5.5,1,10.5,3.6,14.7c0.3,3.6,0.8,7.3,0.9,10.9
	c0.3,14.3-4.9,9.8-9.8,23.8c-5.9-2.2-1.1,10.6-6,7.2c-4.6-3.2-10.3-6.2-3.3-12.8c-4-0.9-6.4,0.6-8.7,2.3c-7.1,0.4-12.7-5.8-22.4-4.8
	c5.5,2.9,9.1,4.8,12.8,6.7c0,0,0,0,0,0c-5.2,8.6-7.2-7-14-0.1c-2.2-3.4-9.4,13.6-9.7,9.6c-0.8-15.8-0.3-31.5,1.6-47.2
	c0.8-3.5,1.7-7,2.9-12c-3.5,3.2-5.9,5.4-8.2,7.5c-7.5,6.9-12,16.1-18.7,23.5c-3.1-2.9-6.2-5.8-9.3-8.6c0.9-12.2,9.2-21.7,13.7-35
	c-10.7,6.8-15.5,15.6-20.3,24.4c-3.8-0.1-5.8-3.7-9.1-4.7l0-17.3c6.3-8.5,11.6-17.8,20.2-24.4c10-5.8,18.9-13.7,30.3-17
	c1.2-0.3,2.7-1.3,1.2-2.8c-0.6-0.6-2-0.4-3-0.5c-19.5-0.7-35.2,5.8-48.8,16.4l0-4.5c-7.3,2.3-14.5,5-21.1,9.2
	c-4.3,2.8-7.2,2.2-10.6-1.8l-0.1-3.5l0.1,3.5c-4-4.7-7.7-10.3-15.4-12.7c3.3,6.8,1.2,13.4,4.2,19.1c2.4,15.6-12.9,18.1-20.2,26.8
	c-0.1-2.1-0.3-4.2-0.4-6.2c4.2-22.8,5.2-46.3,12.7-68.5c3.3-5.3,4.6-11.3,6.5-17.1c1.3-4,2.6-8,4.2-12.9c-2,0.9-3,1.2-3.8,1.8
	c-25.2,20.9-44.1,46.5-58,76.1c-5.5,7.8-7.9,17.2-12.4,25.5c-1.6,2.3-3.6,4.2-4.8,6.8c-1.2,2.7-3.2,3.8-5.6,1.3
	c2.7-1.6,5.2-3.4,6.8-6.3c-5.1,1.2-10.3,2.4-15.4,3.6c-7.2-10-14.9-19.6-23.9-27.9c-3.8-3.5-5.9-7.1-4.9-12.3
	c5.1-17.8,10.9-35.5,18.3-53.6c-5.2,1.7-7.3,4.7-9.1,7.9c-6.3,11.5-12.9,22.9-17.5,35.2c-1,2.7-1.6,5.7-4.4,7.3
	c-3.1-2.2-6.1-4.4-9.2-6.6c-3.9-3-7.6-6.5-13.2-5.4c3.7,2.4,7.5,4.9,11.2,7.3c2.6,2.2,5.2,4.4,7.8,6.6c2.3,2.5,3,5.1,1.7,8.4
	c-1.5,3.8-2.4,7.9-3.6,11.9c-7,2.8-14.5,1.1-21.7,1.9c-5.9,0.6-8.8-3.7-12.3-7.2c-15.6-15.6-32.9-28.2-56.2-29.2
	c-3.5-0.4-7.1-1.1-11.3,2.1c9.8,3.8,18.1,8,25.9,13.4c14.6,10.1,24.2,24.6,34.6,38.5c-4.9,5-8.8,11.4-17.2,10.9
	c-4.6-8.1-9-16.4-19.5-22.2c5.1,11,9.2,19.8,13.2,28.6c0.5,6.5-6,8.9-8.3,13.8c-6-3.5-7.7-10.4-12.2-15.1
	c-4.4-4.5-7.7-10.2-15.2-13.1c2.6,5.5,1,10.5,3.6,14.7c0.3,3.6,0.8,7.3,0.9,10.9c0.3,14.3-1.9,12.5-6.8,26.5
	c-5.9-2.2-5.5-0.2-10.4-3.7c-4.6-3.2-8.8,1.8-1.3-5.2c-2.4,0.1-3.5-0.1-4.4,0.3c-1.7,0.7-3.2,1.7-4.8,2.5
	c-7.1,0.4-12.7-5.8-22.4-4.8c5.5,2.9,9.1,4.8,12.8,6.7c0,0,0,0,0,0c-5.2,8.6-3.3-2.7-10.2,4.2l-5.2,1.6c-2.2-3.4-6-2.2-6.3-6.3
	c-0.8-15.8-2.3-21.6-0.4-37.3c0.8-3.5,1.7-7,2.9-12c-3.5,3.2-5.9,5.4-8.2,7.5c-7.5,6.9-12,16.1-18.7,23.5c-3.1-2.9-6.2-5.8-9.3-8.6
	c0.9-12.2,9.2-21.7,13.7-35c-10.7,6.9-15.6,15.6-20.3,24.5c-3.9-0.1-5.9-4-9.5-4.8c-2.4-3.3-6.4-5.9-4.7-10.9
	c8.8-9.9,14.5-22.3,25.2-30.7c10.1-5.9,19.1-13.7,30.6-17.2c2.7-0.8,2.4-2.5-0.5-3.1c-30.6-1.9-51.9,14.2-70.2,36.2
	c-1.8,2-3.8,1.2-5.7,0.2c-5.2-2-10.7-1.6-16.1-1.5c-3.3,0.1-6.2,0-8-3.3c-0.4-3.9-1.5-7.5-3.4-10.9c-0.3-3.6,2.7-5.9,4-8.7
	c-2.6-1.6-3.9,0.2-5.5,0.9c-4.8-4.2-5.5-10.5-8-15.9c-4.4-16.2-20.3-39.3-27.7-40.3c3.9,7.1,7.8,14.3,11.7,21.5
	c4.3,13.1,8.6,26.3,12.8,39.4c-0.2,2.9,0.1,5.7-2.5,7.9c-10.6,9.2-18.6,20.8-27.8,31.3c-4.5-1.6-8.9-3.5-13.7-3.9
	c0.6,2.5,2.2,3.7,4.1,4.8c-1.1,1.3-2.3,2.8-3.4,0.1c-0.9-2.3-2.7-3.5-4.2-5.1c-2.2-4.2-4.3-8.4-6.5-12.7c-1-2.7-1.9-5.4-3.1-8
	c-6.5-14.1-14.8-27.1-24-39.5c-8.8-14.8-19.9-27.6-33.5-38.2c-3.3-1.6-5.1-5.8-10.3-5.2c4.7,3,4.7,8,6.3,12.2
	c0.1,0.5,0.3,0.9,0.6,1.3c3,9.4,6,18.7,8.9,28.1c0.1,0.7,0.2,1.4,0.7,2.1c3.7,20,7.7,39.9,10,60.1c-0.7,1.6-1.7,1.8-3,0.5
	c-6.4-6.2-12.8-12.4-19.2-18.6c0.5-3.9,1-7.8,1.4-11.8c2.3-5,1.2-10.3,0.7-16.4c-4.6,3.4-8.5,7.3-11.5,11.8
	c-3.7,5.5-7.9,5.9-13.2,2.9c-3.7-2.4-5.3-4.7-0.2-7.6c6.1-3.5,12-7.3,18.7-9.6c1.7-0.6,1.7-0.8,0.5-3.4c-12.7-1.4-24.5,1-35.5,7.6
	c-8.8,4.4-17,9.8-24.1,16.6c-2,1.9-3.7,4.5-7.1,4.3c-5.8-8.3-11.8-16.5-19-23.8c-1.3-0.7-0.6-2.5-1.8-3.2
	C865.4,89,848.2,74.3,831,59.6c-3.1-2.7-6.1-5-10.2-5.3c-3.8-3.4-8.2-5.9-12.9-7.8c-4.5-2.6-9-5.1-13.4,1.6c5,0.2,9.1,0.4,13.3,0.7
	c3.8,2.4,7.5,4.9,11.3,7.3c7.9,5.6,14.5,12.4,18.7,21.2c2.5,10.2,8.6,19.1,10,29.6c1.7,2.5,0,5.4,1,8.1c-0.6-0.3-1.5-0.5-2.7-0.4
	c-0.3,0.7-0.7,1.4-1,2.1c-7.3,14.7-9.2,32.4-22.9,43.8c-4.6-1.3-9.1-2.6-13.7-3.9c1,3.5,3.8,5.1,6.6,6.5c-2.2,2.2-4.4,1.9-5.9-1.6
	c-1-2.2-2.7-3.6-4.3-5.2c-5.3-9.3-7.9-19.9-14.2-28.7c-13.7-28.8-32.8-53.5-57.3-74c-1.4-1.2-3.1-3-5.6-0.4
	c5.2,2.8,4.2,8.6,6.6,12.9c0,0,0,0.1,0,0.1c4.3,14.8,8.6,29.7,12.8,44.5c2.2,15.3,4.4,30.6,6.7,45.8c0.2,0.4,0.4,0.7,0.4,1.1
	c-0.1-0.4-0.3-0.8-0.4-1.1c-3,3.3-4-0.7-5.3-1.8c-5.8-5.2-11.3-10.6-16.9-16c0.5-4.1,1-8.1,1.4-12.2c2.8-4.8,1-10.1,3.1-16.8
	c-6.8,4.2-11.1,8.5-14.7,13.2c-3.4,4.5-6.2,5-11.1,2.2c-8.9-5.1-18.3-9.6-31.3-10.6c10.8,5.9,19.6,10.5,27.6,16.5
	c4.1,3,4.5,5.6,1.8,9.8c-5.6,8.6-10.6,17.7-13.8,27.5c-1.6,4.9-4.5,6.1-9,3.6c-8.1-14.8-15.9-29.7-27.5-42.2
	c-0.3-0.7-0.4-1.6-0.8-2.2c-18.7-25.5-41.1-47.3-66.8-65.8c-1.7-1.2-3.6-3.1-6.5-0.5c13.8,10.6,25.2,23.4,37.4,35.4
	c6.3,8.5,12.6,16.9,18.9,25.4c-9.1,16.5-15.2,34-17.3,52.9c-0.3,3,0.9,8.5-3.7,8.2c-5.3-0.3-4.2-5.5-3.8-9.4
	c0.1-0.8,0.1-1.6,0.2-2.4c1.2-3.6,0.9-7.6,3.1-11.2c-3.7,2.2-7.1,4.5-9.8,7.6c-4.1,4.7-6.9,3.6-9.5-1.3c0.2-9.2,0.8-18.4,2.3-27.6
	c1.1-6.7,4.5-13,4-20.1c-3.7,2-4.3,5.9-5.4,9.2c-3.6,10.4-6.7,20.8-15.5,28.6c-3.4,3-6.2,7.1-8.2,11.5c-1-0.7-2-1.4-3-2.1
	c-9.6-5.9-10.1-7.2-2.9-16.3c13.2-16.7,27.6-32,47.5-40.9c2-0.9,4.2-1.8,1.4-4.2c-1.4,0-2.9,0-4.3,0.1c-7.7-1-15.2,0.2-22.6,2.5
	c-17.2,5.3-30.8,16-42.7,29c-2.6,2.8-5.1,5.3-9.3,5c1,0.3,2.1,0.6,3.1,0.9c-1,0.1-2.1-0.1-3.1-0.9c-4.6-1.6-9.4-1.9-14-1.3
	c-6.3,0.8-10.1-1.1-11.1-7.7c-0.3-1.8-1.3-3.4-2-5.1c0.1-2,0.2-4,0.4-6c7.2-5.1,13.1-11.7,20.4-16.6c-9.4,1.6-15.1,9.8-23.8,12.6
	c-0.5-1.1-1-2.1-1.6-3.2c-4-8.3-7.2-17-12.1-24.7c-4.8-7.5-7-17.2-16.3-21.6c9.4,18.6,15.4,38.1,20.3,58
	c-3.7,7.6-11.9,11.5-15.9,18.9c-3.7,4.3-7.8,8.4-11,13.1c-2.9,4.3-5.8,4.5-9.7,1.8c-2.9-1.8-6.3-2.3-8.4,0.3
	c-2.4,2.9-1.5-1.5-2.5-0.7c-3.3-6.9-6.7-13.7-10-20.6c-4.2-12.3-11.2-22.9-18.8-33.3C416,88,403.5,74.3,389.6,61.7
	c-3.6-3.9-6.9-8.3-13-8.6c2.4,3.4,4.2,6.7,4.8,10.6c5.8,16.2,10.2,32.8,14.5,49.4c2.1,15.2,4.3,30.3,6.4,45.5
	c-9-5.8-17-12.5-22.3-22c0.7-4.1,1.3-8.2,2-12.3c0.2-0.5,0.3-1,0.4-1.4c1-4.1,0.9-8.4,3.4-12.7c-4.7,1.1-6.7,4.1-9.1,6.4
	c-13.4,12.7-13.4,12.7-30,2.7c-1-0.9-2-1.7-3.3-2.1c-1.2-0.1-2.3-0.2-3.3,0.1c-3.6-1.3-7.3-1.9-11-2.6c-0.2,0.6-0.4,1.3-0.5,1.9
	c2.8,1.3,5.7,2.5,8.5,3.8c-0.7,3,1.2,4.8,3.7,6.5c2.9,1.9,5.8,3.7,8.4,5.9c2.7,2.2,4.5,5.2,2.6,8.3c-6.3,10.2-8.2,23.1-18.4,30.9
	c-0.1-0.1-0.2-0.2-0.3-0.4c-0.7-1.5-1.4-3.1-2.1-4.6c1.7-14-1.4-26.9-8.9-38.8c-1.4-2.3-2.6-4.5-2.3-7.3c3.7-5.3,7.3-10.6,11-15.9
	c0.3-2.7,0.9-5.4-0.9-8.5c-3.1,2.7-5.8,5-8.5,7.3c-1.2,1.9-2.4,3.8-3.5,5.7c-2.2,2.3-4.3,4.6-6.6,6.7c-2.9,2.7-3.7,8-9.1,7.8
	c-4.9-7.8-11.1-14.5-18-20.5c-1.2-1-2.1-3.4-4.4-2c-1.6,1-1.3,2.7-1.5,4.2c-0.5,3.2,0.7,5.6,3.1,7.5c-10.6,3.8-21.8,6.2-31.4,12.4
	c-4.8,3.1-8.2,2.8-11.9-2c-3.7-4.7-7.5-9.8-14.9-12.1c3.4,6.7,1.2,13.4,4.1,19.2c0,0,0,0,0.1,0c2.3,15.5-13,18-20.2,26.7
	c-0.1-2.1-0.3-4.2-0.4-6.2c4.2-22.8,5.2-46.3,12.7-68.5c3.3-5.3,4.6-11.3,6.5-17.1c1.3-4,2.6-8,4.2-12.9c-2,0.9-3,1.2-3.8,1.8
	c-25.2,20.9-44.1,46.5-58,76.1c-5.5,7.8-7.9,17.2-12.4,25.5c-1.6,2.3-3.6,4.2-4.8,6.8c-1.2,2.7-3.2,3.8-5.6,1.3
	c2.7-1.6,5.2-3.4,6.8-6.3c-5.1,1.2-10.3,2.4-15.4,3.6c-7.2-10-14.9-19.6-23.9-27.9c-3.8-3.5-5.9-7.1-4.9-12.3
	c5.1-17.8,10.9-35.5,18.3-53.6c-5.2,1.7-7.3,4.7-9.1,7.9c-6.3,11.5-12.9,22.9-17.5,35.2c-1,2.7-1.6,5.7-4.4,7.3
	c-3.1-2.2-6.1-4.4-9.2-6.6c-3.9-3-7.6-6.5-13.2-5.4c3.7,2.4,7.5,4.9,11.2,7.3c2.6,2.2,5.2,4.4,7.8,6.6c2.3,2.5,3,5.1,1.7,8.4
	c-1.5,3.8-2.4,7.9-3.6,11.9c-7,2.8-14.5,1.1-21.7,1.9c-5.9,0.6-8.8-3.7-12.3-7.2c-15.6-15.6-32.9-28.2-56.2-29.2
	c-3.5-0.4-7.1-1.1-11.3,2.1c9.8,3.8,18.1,8.1,25.9,13.5c14.6,10.1,24.1,24.8,34.7,38.5l-1.3,3.2c-2.4,1.5-4.8,3.1-7.2,4.6
	c-2.7,1.7-4.7,5.4-8.8,3.1c-4.6-8.1-9-16.4-19.5-22.2c5.1,11,9.2,19.8,13.2,28.6c0.5,6.5-6,8.9-8.3,13.8c-6-3.5-7.7-10.4-12.2-15.1
	c-4.4-4.5-7.7-10.2-15.2-13.1c2.6,5.5,1,10.5,3.6,14.7c0.3,3.6,0.8,7.3,0.9,10.9c0.3,11.6,1.8,23.3-0.3,34.8
	c2.2,6.5,4.2,13,5.7,19.8h3200.2L3199.7,110.2z"/>
</svg>
